<svg id="my-svg" width="100%" xmlns="http://www.w3.org/2000/svg" xmlns:xlink="http://www.w3.org/1999/xlink" style="max-width: 900px; background-color: white;" viewBox="0 0 900 420" role="graphics-document document" aria-roledescription="xychart"><style>#my-svg{font-family:Helvetica Neue,Arial,sans-serif;font-size:15px;fill:#1E2A33;}@keyframes edge-animation-frame{from{stroke-dashoffset:0;}}@keyframes dash{to{stroke-dashoffset:0;}}#my-svg .edge-animation-slow{stroke-dasharray:9,5!important;stroke-dashoffset:900;animation:dash 50s linear infinite;stroke-linecap:round;}#my-svg .edge-animation-fast{stroke-dasharray:9,5!important;stroke-dashoffset:900;animation:dash 20s linear infinite;stroke-linecap:round;}#my-svg .error-icon{fill:#FBF8F1;}#my-svg .error-text{fill:#04070e;stroke:#04070e;}#my-svg .edge-thickness-normal{stroke-width:1px;}#my-svg .edge-thickness-thick{stroke-width:3.5px;}#my-svg .edge-pattern-solid{stroke-dasharray:0;}#my-svg .edge-thickness-invisible{stroke-width:0;fill:none;}#my-svg .edge-pattern-dashed{stroke-dasharray:3;}#my-svg .edge-pattern-dotted{stroke-dasharray:2;}#my-svg .marker{fill:#1F4E79;stroke:#1F4E79;}#my-svg .marker.cross{stroke:#1F4E79;}#my-svg svg{font-family:Helvetica Neue,Arial,sans-serif;font-size:15px;}#my-svg p{margin:0;}#my-svg .node .neo-node{stroke:#1E2A33;}#my-svg [data-look="neo"].node rect,#my-svg [data-look="neo"].cluster rect,#my-svg [data-look="neo"].node polygon{stroke:url(#my-svg-gradient);filter:drop-shadow( 1px 2px 2px rgba(185,185,185,1));}#my-svg [data-look="neo"].swimlane.cluster rect{filter:none;}#my-svg [data-look="neo"].node path{stroke:url(#my-svg-gradient);stroke-width:1px;}#my-svg [data-look="neo"].node .outer-path{filter:drop-shadow( 1px 2px 2px rgba(185,185,185,1));}#my-svg [data-look="neo"].node .neo-line path{stroke:#1E2A33;filter:none;}#my-svg [data-look="neo"].node circle{stroke:url(#my-svg-gradient);filter:drop-shadow( 1px 2px 2px rgba(185,185,185,1));}#my-svg [data-look="neo"].node circle .state-start{fill:#000000;}#my-svg [data-look="neo"].icon-shape .icon{fill:url(#my-svg-gradient);filter:drop-shadow( 1px 2px 2px rgba(185,185,185,1));}#my-svg [data-look="neo"].icon-shape .icon-neo path{stroke:url(#my-svg-gradient);filter:drop-shadow( 1px 2px 2px rgba(185,185,185,1));}#my-svg :root{--mermaid-font-family:"trebuchet ms",verdana,arial,sans-serif;}</style><g/><g class="main"><rect width="900" height="420" class="background" fill="#ffffff"/><g class="chart-title"><text x="0" y="0" fill="#1E2A33" font-size="20" dominant-baseline="middle" text-anchor="middle" transform="translate(450, 20.499999046325684) rotate(0)">Oil rate by strategy (ILLUSTRATIVE, one cycle)</text></g><g class="plot"><g class="line-plot-0"><path d="M63.344,354.5L145.221,83.471L227.099,127.186L308.976,157.786L390.853,184.014L472.731,205.871L554.608,223.357L636.486,236.471L718.363,249.586L800.241,258.329" fill="none" stroke="#FFF4DD" stroke-width="2"/></g><g class="line-plot-1"><path d="M63.344,354.5L145.221,92.214L227.099,135.929L308.976,166.529L390.853,192.757L472.731,214.614L554.608,232.1L636.486,245.214L718.363,258.329L800.241,267.071" fill="none" stroke="#FFD8B1" stroke-width="2"/></g><g class="line-plot-2"><path d="M63.344,354.5L145.221,109.7L227.099,153.414L308.976,184.014L390.853,210.243L472.731,232.1L554.608,249.586L636.486,262.7L718.363,271.443L800.241,280.186" fill="none" stroke="#FFA07A" stroke-width="2"/></g><g class="line-plot-3"><path d="M63.344,354.5L145.221,74.729L227.099,135.929L308.976,179.643L390.853,218.986L472.731,302.043L554.608,310.786L636.486,315.157L718.363,319.529L800.241,319.529" fill="none" stroke="#ECEFF1" stroke-width="2"/></g><g class="line-plot-4"><path d="M63.344,354.5L145.221,127.186L227.099,170.9L308.976,201.5L390.853,227.729L472.731,249.586L554.608,267.071L636.486,280.186L718.363,288.929L800.241,297.671" fill="none" stroke="#D6DBDF" stroke-width="2"/></g></g><g class="legend"><g class="markers"><path d="M 817.021875,157.74999523162842 L 827.521875,157.74999523162842" fill="none" stroke="#FFF4DD" stroke-width="2"/><path d="M 817.021875,178.74999523162842 L 827.521875,178.74999523162842" fill="none" stroke="#FFD8B1" stroke-width="2"/><path d="M 817.021875,199.74999523162842 L 827.521875,199.74999523162842" fill="none" stroke="#FFA07A" stroke-width="2"/><path d="M 817.021875,220.74999523162842 L 827.521875,220.74999523162842" fill="none" stroke="#ECEFF1" stroke-width="2"/><path d="M 817.021875,241.74999523162842 L 827.521875,241.74999523162842" fill="none" stroke="#D6DBDF" stroke-width="2"/></g><g class="label"><text x="0" y="0" fill="#1E2A33" font-size="14" dominant-baseline="middle" text-anchor="start" transform="translate(832.421875, 157.74999523162842) rotate(0)">Oracle</text><text x="0" y="0" fill="#1E2A33" font-size="14" dominant-baseline="middle" text-anchor="start" transform="translate(832.421875, 178.74999523162842) rotate(0)">Mantle</text><text x="0" y="0" fill="#1E2A33" font-size="14" dominant-baseline="middle" text-anchor="start" transform="translate(832.421875, 199.74999523162842) rotate(0)">Sequential</text><text x="0" y="0" fill="#1E2A33" font-size="14" dominant-baseline="middle" text-anchor="start" transform="translate(832.421875, 220.74999523162842) rotate(0)">Greedy</text><text x="0" y="0" fill="#1E2A33" font-size="14" dominant-baseline="middle" text-anchor="start" transform="translate(832.421875, 241.74999523162842) rotate(0)">Static</text></g></g><g class="bottom-axis"><g class="axis-line"><path d="M 56.562503814697266,362.99999237060547 L 807.021875,362.99999237060547" fill="none" stroke="#1E2A33" stroke-width="2"/></g><g class="label"><text x="0" y="0" fill="#1E2A33" font-size="14" dominant-baseline="text-before-edge" text-anchor="middle" transform="translate(63.343753814697266, 373.99999237060547) rotate(0)">0</text><text x="0" y="0" fill="#1E2A33" font-size="14" dominant-baseline="text-before-edge" text-anchor="middle" transform="translate(145.22118394639756, 373.99999237060547) rotate(0)">10</text><text x="0" y="0" fill="#1E2A33" font-size="14" dominant-baseline="text-before-edge" text-anchor="middle" transform="translate(227.09861407809788, 373.99999237060547) rotate(0)">20</text><text x="0" y="0" fill="#1E2A33" font-size="14" dominant-baseline="text-before-edge" text-anchor="middle" transform="translate(308.9760442097982, 373.99999237060547) rotate(0)">30</text><text x="0" y="0" fill="#1E2A33" font-size="14" dominant-baseline="text-before-edge" text-anchor="middle" transform="translate(390.8534743414985, 373.99999237060547) rotate(0)">40</text><text x="0" y="0" fill="#1E2A33" font-size="14" dominant-baseline="text-before-edge" text-anchor="middle" transform="translate(472.7309044731988, 373.99999237060547) rotate(0)">50</text><text x="0" y="0" fill="#1E2A33" font-size="14" dominant-baseline="text-before-edge" text-anchor="middle" transform="translate(554.6083346048991, 373.99999237060547) rotate(0)">60</text><text x="0" y="0" fill="#1E2A33" font-size="14" dominant-baseline="text-before-edge" text-anchor="middle" transform="translate(636.4857647365994, 373.99999237060547) rotate(0)">70</text><text x="0" y="0" fill="#1E2A33" font-size="14" dominant-baseline="text-before-edge" text-anchor="middle" transform="translate(718.3631948682997, 373.99999237060547) rotate(0)">80</text><text x="0" y="0" fill="#1E2A33" font-size="14" dominant-baseline="text-before-edge" text-anchor="middle" transform="translate(800.240625, 373.99999237060547) rotate(0)">90</text></g><g class="ticks"><path d="M 63.343753814697266,363.99999237060547 L 63.343753814697266,368.99999237060547" fill="none" stroke="#1E2A33" stroke-width="2"/><path d="M 145.22118394639756,363.99999237060547 L 145.22118394639756,368.99999237060547" fill="none" stroke="#1E2A33" stroke-width="2"/><path d="M 227.09861407809788,363.99999237060547 L 227.09861407809788,368.99999237060547" fill="none" stroke="#1E2A33" stroke-width="2"/><path d="M 308.9760442097982,363.99999237060547 L 308.9760442097982,368.99999237060547" fill="none" stroke="#1E2A33" stroke-width="2"/><path d="M 390.8534743414985,363.99999237060547 L 390.8534743414985,368.99999237060547" fill="none" stroke="#1E2A33" stroke-width="2"/><path d="M 472.7309044731988,363.99999237060547 L 472.7309044731988,368.99999237060547" fill="none" stroke="#1E2A33" stroke-width="2"/><path d="M 554.6083346048991,363.99999237060547 L 554.6083346048991,368.99999237060547" fill="none" stroke="#1E2A33" stroke-width="2"/><path d="M 636.4857647365994,363.99999237060547 L 636.4857647365994,368.99999237060547" fill="none" stroke="#1E2A33" stroke-width="2"/><path d="M 718.3631948682997,363.99999237060547 L 718.3631948682997,368.99999237060547" fill="none" stroke="#1E2A33" stroke-width="2"/><path d="M 800.240625,363.99999237060547 L 800.240625,368.99999237060547" fill="none" stroke="#1E2A33" stroke-width="2"/></g><g class="title"><text x="0" y="0" fill="#1E2A33" font-size="16" dominant-baseline="text-before-edge" text-anchor="middle" transform="translate(431.79218940734864, 398.99999618530273) rotate(0)">Day of production</text></g></g><g class="left-axis"><g class="axisl-line"><path d="M 55.562503814697266,40.99999809265137 L 55.562503814697266,361.99999237060547" fill="none" stroke="#1E2A33" stroke-width="2"/></g><g class="label"><text x="0" y="0" fill="#1E2A33" font-size="14" dominant-baseline="middle" text-anchor="end" transform="translate(44.562503814697266, 48.5) rotate(0)">70</text><text x="0" y="0" fill="#1E2A33" font-size="14" dominant-baseline="middle" text-anchor="end" transform="translate(44.562503814697266, 70.3571421759469) rotate(0)">65</text><text x="0" y="0" fill="#1E2A33" font-size="14" dominant-baseline="middle" text-anchor="end" transform="translate(44.562503814697266, 92.21428435189385) rotate(0)">60</text><text x="0" y="0" fill="#1E2A33" font-size="14" dominant-baseline="middle" text-anchor="end" transform="translate(44.562503814697266, 114.07142652784074) rotate(0)">55</text><text x="0" y="0" fill="#1E2A33" font-size="14" dominant-baseline="middle" text-anchor="end" transform="translate(44.562503814697266, 135.92856870378768) rotate(0)">50</text><text x="0" y="0" fill="#1E2A33" font-size="14" dominant-baseline="middle" text-anchor="end" transform="translate(44.562503814697266, 157.78571087973455) rotate(0)">45</text><text x="0" y="0" fill="#1E2A33" font-size="14" dominant-baseline="middle" text-anchor="end" transform="translate(44.562503814697266, 179.6428530556815) rotate(0)">40</text><text x="0" y="0" fill="#1E2A33" font-size="14" dominant-baseline="middle" text-anchor="end" transform="translate(44.562503814697266, 201.49999523162842) rotate(0)">35</text><text x="0" y="0" fill="#1E2A33" font-size="14" dominant-baseline="middle" text-anchor="end" transform="translate(44.562503814697266, 223.35713740757532) rotate(0)">30</text><text x="0" y="0" fill="#1E2A33" font-size="14" dominant-baseline="middle" text-anchor="end" transform="translate(44.562503814697266, 245.21427958352223) rotate(0)">25</text><text x="0" y="0" fill="#1E2A33" font-size="14" dominant-baseline="middle" text-anchor="end" transform="translate(44.562503814697266, 267.07142175946916) rotate(0)">20</text><text x="0" y="0" fill="#1E2A33" font-size="14" dominant-baseline="middle" text-anchor="end" transform="translate(44.562503814697266, 288.9285639354161) rotate(0)">15</text><text x="0" y="0" fill="#1E2A33" font-size="14" dominant-baseline="middle" text-anchor="end" transform="translate(44.562503814697266, 310.785706111363) rotate(0)">10</text><text x="0" y="0" fill="#1E2A33" font-size="14" dominant-baseline="middle" text-anchor="end" transform="translate(44.562503814697266, 332.64284828730996) rotate(0)">5</text><text x="0" y="0" fill="#1E2A33" font-size="14" dominant-baseline="middle" text-anchor="end" transform="translate(44.562503814697266, 354.49999046325684) rotate(0)">0</text></g><g class="ticks"><path d="M 54.562503814697266,48.5 L 49.562503814697266,48.5" fill="none" stroke="#1E2A33" stroke-width="2"/><path d="M 54.562503814697266,70.3571421759469 L 49.562503814697266,70.3571421759469" fill="none" stroke="#1E2A33" stroke-width="2"/><path d="M 54.562503814697266,92.21428435189385 L 49.562503814697266,92.21428435189385" fill="none" stroke="#1E2A33" stroke-width="2"/><path d="M 54.562503814697266,114.07142652784074 L 49.562503814697266,114.07142652784074" fill="none" stroke="#1E2A33" stroke-width="2"/><path d="M 54.562503814697266,135.92856870378768 L 49.562503814697266,135.92856870378768" fill="none" stroke="#1E2A33" stroke-width="2"/><path d="M 54.562503814697266,157.78571087973455 L 49.562503814697266,157.78571087973455" fill="none" stroke="#1E2A33" stroke-width="2"/><path d="M 54.562503814697266,179.6428530556815 L 49.562503814697266,179.6428530556815" fill="none" stroke="#1E2A33" stroke-width="2"/><path d="M 54.562503814697266,201.49999523162842 L 49.562503814697266,201.49999523162842" fill="none" stroke="#1E2A33" stroke-width="2"/><path d="M 54.562503814697266,223.35713740757532 L 49.562503814697266,223.35713740757532" fill="none" stroke="#1E2A33" stroke-width="2"/><path d="M 54.562503814697266,245.21427958352223 L 49.562503814697266,245.21427958352223" fill="none" stroke="#1E2A33" stroke-width="2"/><path d="M 54.562503814697266,267.07142175946916 L 49.562503814697266,267.07142175946916" fill="none" stroke="#1E2A33" stroke-width="2"/><path d="M 54.562503814697266,288.9285639354161 L 49.562503814697266,288.9285639354161" fill="none" stroke="#1E2A33" stroke-width="2"/><path d="M 54.562503814697266,310.785706111363 L 49.562503814697266,310.785706111363" fill="none" stroke="#1E2A33" stroke-width="2"/><path d="M 54.562503814697266,332.64284828730996 L 49.562503814697266,332.64284828730996" fill="none" stroke="#1E2A33" stroke-width="2"/><path d="M 54.562503814697266,354.49999046325684 L 49.562503814697266,354.49999046325684" fill="none" stroke="#1E2A33" stroke-width="2"/></g><g class="title"><text x="0" y="0" fill="#1E2A33" font-size="16" dominant-baseline="text-before-edge" text-anchor="middle" transform="translate(5, 201.49999523162842) rotate(270)">BOPD</text></g></g></g><g class="mermaid-tmp-group"/></svg>